# xmcd
#
# Track frame offsets:
#	150
#	18205
#	28955
#
# Disc length: 593 seconds
#
# Revision: 2
# Processed by: cddbd v1.5.2PL0 Copyright (c) Steve Scherf et al.
# Submitted via: audiograbber 1.83.01
#
DISCID=1b024f03
DTITLE=Lloyd Cole - Like Lovers Do [EP] CD1 LCDD1
DYEAR=1995
DGENRE=Adult Pop
TTITLE0=Like Lovers Do
TTITLE1=I Will Not Leave You Alone
TTITLE2=Rattlesnakes
EXTD=Silvertone Records
EXTT0=
EXTT1=
EXTT2=
PLAYORDER=
